<?xml version="1.0" encoding="UTF-8" standalone="no"?>
<!-- Created with Inkscape (http://www.inkscape.org/) -->

<svg
   width="32"
   height="32"
   viewBox="0 0 128 128"
   version="1.1"
   id="svg1"
   xml:space="preserve"
   sodipodi:docname="controller.svg"
   inkscape:version="1.4.4 (dcaf3e7d9e, 2026-05-05)"
   inkscape:export-filename="controller.svg"
   inkscape:export-xdpi="96"
   inkscape:export-ydpi="96"
   xmlns:inkscape="http://www.inkscape.org/namespaces/inkscape"
   xmlns:sodipodi="http://sodipodi.sourceforge.net/DTD/sodipodi-0.dtd"
   xmlns="http://www.w3.org/2000/svg"
   xmlns:svg="http://www.w3.org/2000/svg"><sodipodi:namedview
     id="namedview1"
     pagecolor="#ffffff"
     bordercolor="#000000"
     borderopacity="0.25"
     inkscape:showpageshadow="2"
     inkscape:pageopacity="0.0"
     inkscape:pagecheckerboard="0"
     inkscape:deskcolor="#d1d1d1"
     inkscape:document-units="mm"
     inkscape:zoom="1.1191406"
     inkscape:cx="-12.062827"
     inkscape:cy="302.91099"
     inkscape:window-width="5120"
     inkscape:window-height="1352"
     inkscape:window-x="0"
     inkscape:window-y="0"
     inkscape:window-maximized="1"
     inkscape:current-layer="layer1"><inkscape:page
       x="0"
       y="0"
       width="128"
       height="128"
       id="page2"
       margin="0"
       bleed="0" /></sodipodi:namedview><defs
     id="defs1" /><g
     inkscape:label="Layer 1"
     inkscape:groupmode="layer"
     id="layer1"
     style="display:inline"><path
       d="m 68.055881,33.787074 c -6.126832,-0.01317 -14.28846,0.38023 -21.401204,0.38023 -14.963315,0 -21.09697,2.520841 -25.2648,16.891993 -1.443702,4.978049 -10.77189,37.854083 -5.854002,51.206753 2.879641,7.81856 10.989429,7.27561 13.309257,7.34517 9.310848,0.27917 8.364336,-15.66072 13.156333,-24.610252 3.867583,-7.223096 48.579073,-7.243398 52.457527,0 4.791996,8.949532 3.845484,24.889422 13.156328,24.610252 2.31984,-0.0696 10.432,0.47339 13.31165,-7.34517 4.91789,-13.35267 -4.41031,-46.228704 -5.85402,-51.206753 -4.16781,-14.371152 -10.30147,-16.891993 -25.26479,-16.891993 -7.112744,0 -15.276753,-0.393393 -21.403586,-0.38023 -0.05835,1.26e-4 -0.11568,0.0049 -0.173156,0.0095 -0.05748,-0.0047 -0.117185,-0.0094 -0.175537,-0.0095 z m 29.392592,8.94702 c 1.554735,4.6e-5 2.815087,1.260397 2.815137,2.815133 -5e-5,1.554736 -1.260402,2.815087 -2.815137,2.815134 -1.554968,2.81e-4 -2.815682,-1.260166 -2.81573,-2.815134 4.8e-5,-1.554968 1.260762,-2.815415 2.81573,-2.815133 z m -62.576776,1.123435 h 5.580879 v 5.376185 h 5.376185 v 5.580881 h -5.376185 v 5.376184 h -5.580879 v -5.376184 h -5.376781 v -5.580881 h 5.376781 z m 56.22413,4.98822 c 1.554734,4.7e-5 2.815085,1.260398 2.815133,2.815133 -4.8e-5,1.554736 -1.260399,2.815087 -2.815133,2.815135 -1.554736,-4.8e-5 -2.815087,-1.260399 -2.815134,-2.815135 4.7e-5,-1.554735 1.260398,-2.815086 2.815134,-2.815133 z m 12.602613,0 c 1.55473,4.7e-5 2.81508,1.260398 2.81513,2.815133 -5e-5,1.554736 -1.2604,2.815087 -2.81513,2.815135 -1.55474,-4.8e-5 -2.81509,-1.260399 -2.81514,-2.815135 5e-5,-1.554735 1.2604,-2.815086 2.81514,-2.815133 z M 51.707159,60.443076 c 3.93357,1.27e-4 7.122235,3.189058 7.122034,7.122628 -1.27e-4,3.933336 -3.188696,7.121904 -7.122034,7.122031 -3.933568,2.01e-4 -7.122499,-3.188463 -7.122627,-7.122031 -2.01e-4,-3.933802 3.188826,-7.122828 7.122627,-7.122628 z m 32.531427,0 c 3.93357,1.27e-4 7.122233,3.189058 7.122033,7.122628 -1.27e-4,3.933336 -3.188695,7.121904 -7.122033,7.122031 -3.933568,2.01e-4 -7.122499,-3.188463 -7.122627,-7.122031 -2e-4,-3.933802 3.188826,-7.122828 7.122627,-7.122628 z M 97.493697,55.20959 c 1.554735,4.7e-5 2.815083,1.260398 2.815133,2.815133 -5e-5,1.554736 -1.260398,2.815087 -2.815133,2.815134 -1.554736,-4.7e-5 -2.815087,-1.260398 -2.815134,-2.815134 4.7e-5,-1.554735 1.260398,-2.815086 2.815134,-2.815133 z"
       style="display:inline;fill:#e0e0e0;fill-opacity:1;stroke:none;stroke-width:1.52331;stroke-opacity:1"
       id="path28"
       sodipodi:nodetypes="csssssssssssccccccccccccccccccccccccccccccccccccccccccccc" /><path
       style="fill:none;fill-opacity:1;stroke:#e0e0e0;stroke-width:3.0466;stroke-linecap:butt;stroke-linejoin:miter;stroke-dasharray:none;stroke-opacity:1"
       d="m 41.923472,25.676046 -8.728956,5.926263 -11.203325,-7.085229 2.212505,9.636012 -19.3456109,-8.093231 13.7547939,17.66271 -11.1754766,0.93628 8.6388606,5.597653 -3.795152,9.130942"
       id="path44"
       sodipodi:nodetypes="ccccccccc" /><path
       style="fill:none;fill-opacity:1;stroke:#e0e0e0;stroke-width:3.0466;stroke-linecap:butt;stroke-linejoin:miter;stroke-dasharray:none;stroke-opacity:1"
       d="m 123.72821,56.908481 -5.08622,-7.569987 6.0527,-14.412497 -8.09606,2.886232 7.51575,-16.361959 -15.37497,10.375308 -4.1865,-10.009668 -5.18931,8.502746 -8.514768,-3.579303"
       id="path45"
       sodipodi:nodetypes="ccccccccc" /></g></svg>
